<?xml version="1.0" encoding="UTF-8"?>
<svg width="217px" height="172px" viewBox="0 0 217 172" version="1.1" xmlns="http://www.w3.org/2000/svg" xmlns:xlink="http://www.w3.org/1999/xlink">
    <title>bottle</title>
    <defs>
        <polygon id="path-1" points="0.000770560875 0.581290323 216.75157 0.581290323 216.75157 171 0.000770560875 171"></polygon>
    </defs>
    <g id="home:-encounters" stroke="none" stroke-width="1" fill="none" fill-rule="evenodd">
        <g id="Desktop" transform="translate(-751.000000, -3242.000000)">
            <g id="card3" transform="translate(75.000000, 2639.000000)">
                <g id="bottle" transform="translate(676.000000, 603.000000)">
                    <g id="Group-3">
                        <mask id="mask-2" fill="white">
                            <use xlink:href="#path-1"></use>
                        </mask>
                        <g id="Clip-2"></g>
                        <path d="M14.5895582,28.3903613 C14.6450013,28.3903613 14.7004443,28.3931355 14.7558873,28.4014581 C15.2105203,28.4541677 15.606938,28.7315871 15.8176215,29.1366194 C15.8730646,29.2420387 21.4201405,39.7451355 31.1254443,46.5169419 C46.1338747,56.9895226 54.3948873,64.0498452 56.3769759,68.1057161 C56.7844823,68.9407484 57.3278241,70.3361677 58.020862,72.1255226 C61.2337861,80.4064903 67.9119,97.6397806 79.8903684,104.988619 C94.6132671,114.021394 123.726406,131.168684 131.807229,135.568555 C137.268368,138.539716 142.931875,144.060361 147.927292,148.931845 C150.560837,151.497974 153.050229,153.925394 155.126571,155.58991 C160.637609,160.006426 171.734533,168.922684 179.011432,168.184748 L213.826887,118.199329 C212.831685,115.522232 207.972103,104.558619 193.490381,99.1517161 C174.113039,91.9193935 157.862685,76.8804903 157.7019,76.7306839 C154.433533,73.679071 125.231685,48.5088129 117.88271,44.5722323 C110.849761,40.8048774 95.7276722,37.3898452 83.5690139,38.4384903 C74.4236848,39.2180387 63.3905203,31.1506839 55.337419,25.2527484 C52.2991405,23.0278452 49.6739127,21.1081032 47.8304316,20.1537806 L46.8629506,19.6544258 C40.2984949,16.2560387 32.8635835,12.4054581 27.1779,13.4208129 C26.6234696,13.5262323 26.0745835,13.2737806 25.7696468,12.8021677 C25.4674823,12.333329 25.4785709,11.7257806 25.7945962,11.2652645 C25.8167734,11.2319742 27.9042038,8.15261935 26.1300266,6.91255484 C25.7419253,6.64345806 25.4952038,6.65732903 25.298381,6.7155871 C24.294862,6.98468387 23.2081785,8.72687742 22.8394823,9.52584516 C22.6676089,9.8975871 22.3404949,10.1777806 21.9440772,10.2832 C21.5504316,10.3913935 21.1262924,10.3192645 20.7880899,10.0834581 L18.2571152,8.31907097 C17.6915962,7.92513548 17.5030899,7.17332903 17.8135709,6.55745806 C17.8218873,6.5408129 18.8614443,4.35197419 17.7830772,3.60016774 C16.6825329,2.82894194 15.3297228,4.15223226 15.2715076,4.20494194 L2.88276076,22.0263613 C2.75246962,22.4092 2.53069747,23.4356516 3.50095063,24.1125548 C4.74841899,24.9836516 6.58081139,23.6714581 6.60021646,23.6603613 C7.07702658,23.3108129 7.73125443,23.3024903 8.21638101,23.6381677 L10.3232165,25.1084903 C10.6447861,25.3332 10.8554696,25.6855226 10.9025962,26.0766839 C10.9524949,26.4678452 10.8332924,26.8617806 10.5754823,27.1586194 C10.1430266,27.6579742 9.28088734,28.9618452 9.38622911,29.791329 C9.40563418,29.9577806 9.46939367,30.1575226 9.78541899,30.3766839 C11.2352544,31.3864903 13.5250519,28.8897161 13.5472291,28.8619742 C13.8105835,28.5623613 14.1931405,28.3903613 14.5895582,28.3903613 M178.154837,171.000555 C169.916001,171.000555 159.356875,162.533716 153.488229,157.831458 C151.212292,156.006039 148.678546,153.534232 145.99233,150.918168 C141.127204,146.174297 135.607849,140.795135 130.484913,138.007071 C122.198951,133.496232 93.5044063,116.595845 78.4433051,107.352232 C65.666457,99.5151355 58.7582544,81.6937161 55.4372165,73.1297806 C54.7829886,71.4375226 54.2729127,70.1170065 53.8875835,69.3263613 C52.6872418,66.8712 47.489457,61.3144903 29.5397734,48.7917806 C21.4506342,43.149071 16.2195835,35.2925548 14.2430392,31.9773935 C12.6074696,33.2146839 10.2954949,34.1135226 8.1997481,32.6542968 C7.30157089,32.027329 6.75822911,31.1534581 6.63348228,30.1242323 C6.47269747,28.8120387 7.04098861,27.5053935 7.58987468,26.5843613 L7.37364684,26.4345548 C5.94598861,27.1752645 3.78093797,27.6912645 1.91527975,26.3873935 C-0.490948101,24.7090065 -0.141656962,22.0124903 0.376735443,20.8195871 L13.1480392,2.43778065 C14.3317481,1.19494194 16.940343,-0.372477419 19.3715203,1.32532903 C21.320343,2.68745806 21.2565835,4.98171613 20.7409633,6.66842581 L21.1262924,6.94029677 C21.8498241,5.84171613 23.0279886,4.45739355 24.5665329,4.03849032 C25.6421278,3.7472 26.7288114,3.95249032 27.7156975,4.63771613 C29.9029253,6.16352258 29.8835203,8.53268387 29.2431532,10.4801677 C35.2670392,10.5301032 42.0560392,14.0450065 48.1381405,17.1909419 L49.1000772,17.6902968 C51.1348367,18.7389419 53.840457,20.7197161 56.9729886,23.0167484 C64.6712544,28.6539097 75.2276089,36.3883613 83.3306089,35.6726194 C96.1629,34.5629419 111.648141,38.0861677 119.191166,42.1253935 C127.172191,46.4032 157.18628,72.4556516 159.592508,74.6999742 C159.747748,74.8497806 175.596141,89.5113935 194.460634,96.5522968 C212.316065,103.218684 216.526963,117.433652 216.698837,118.035652 C216.812495,118.435135 216.740419,118.86791 216.502014,119.209135 L180.938077,170.268168 C180.730166,170.567781 180.405824,170.773071 180.045444,170.839652 C179.432799,170.947845 178.800748,171.000555 178.154837,171.000555" id="Fill-1" fill="#4F2E1C" mask="url(#mask-2)"></path>
                    </g>
                    <path d="M68.6138275,43 C68.3896338,43 68.1626722,42.944079 67.9550853,42.829441 C67.8720506,42.7847042 59.6322377,38.2439193 52.0788453,32.9258326 C44.7413431,27.7587326 36.9692926,24.7389989 36.8917935,24.7082423 C36.1776948,24.4342294 35.8178777,23.626171 36.0918923,22.9047902 C36.3631391,22.1806133 37.1602725,21.8143308 37.8771389,22.0939358 C38.20651,22.222554 46.0339171,25.2590641 53.6648086,30.6330718 C61.0908811,35.8644809 69.1950706,40.3297725 69.2753375,40.3745093 C69.9479188,40.7435878 70.197023,41.5907909 69.8316702,42.270231 C69.5797982,42.7371713 69.1037324,43 68.6138275,43" id="Fill-4" fill="#4F2E1C"></path>
                    <path d="M151.611774,84 C151.315072,84 151.015598,83.9047112 150.763263,83.7057256 C150.369509,83.3974382 111.335229,52.7816924 104.189435,48.981349 C97.2183345,45.2762944 83.484102,44.8054554 83.3454564,44.8026528 C82.5801327,44.7774293 81.9784109,44.1300257 82,43.3565045 C82.0255504,42.5829832 82.6439097,41.9944345 83.4314167,42 C84.0220469,42.019658 97.9476103,42.4961022 105.481612,46.503839 C112.84092,50.4162869 150.849223,80.2248801 152.463058,81.4916613 C153.067552,81.9653029 153.178469,82.8453234 152.709847,83.4590957 C152.435328,83.8150275 152.024937,84 151.611774,84" id="Fill-6" fill="#4F2E1C"></path>
                    <path d="M204.615326,119 C204.258177,119 203.901029,118.863773 203.629707,118.594042 C194.033769,109.025433 174.047308,100.701942 173.847969,100.617481 C173.141978,100.325955 172.812516,99.5303869 173.108755,98.8356274 C173.402226,98.1408679 174.216192,97.8139223 174.919414,98.1081734 C175.761066,98.4541909 195.617404,106.72864 205.600944,116.68141 C206.138051,117.215422 206.132514,118.079103 205.587101,118.607665 C205.318548,118.869222 204.966937,119 204.615326,119" id="Fill-8" fill="#4F2E1C"></path>
                </g>
            </g>
        </g>
    </g>
</svg>