<?xml version="1.0" encoding="UTF-8"?>
<svg width="185px" height="197px" viewBox="0 0 185 197" version="1.1" xmlns="http://www.w3.org/2000/svg" xmlns:xlink="http://www.w3.org/1999/xlink">
    <title>calculator</title>
    <defs>
        <polygon id="path-1" points="0.000356760561 0.747589744 184.266656 0.747589744 184.266656 196.999158 0.000356760561 196.999158"></polygon>
    </defs>
    <g id="home:-encounters" stroke="none" stroke-width="1" fill="none" fill-rule="evenodd">
        <g id="Desktop" transform="translate(-119.000000, -3494.000000)">
            <g id="card4" transform="translate(119.000000, 3494.000000)">
                <g id="calculator">
                    <g id="Group-3">
                        <mask id="mask-2" fill="white">
                            <use xlink:href="#path-1"></use>
                        </mask>
                        <g id="Clip-2"></g>
                        <path d="M1.99480455,133.927167 L103.586714,195.002218 L182.270577,63.8221068 L80.6786682,2.74537179 L1.99480455,133.927167 Z M103.874305,196.999158 C103.727986,196.999158 103.578305,196.960432 103.442077,196.879611 L0.40885,134.937423 C0.217122727,134.822927 0.0792136364,134.63603 0.0253954545,134.418825 C-0.0284227273,134.203303 0.00521363636,133.974312 0.119577273,133.782363 L79.6695773,1.15590171 C79.9100773,0.758534188 80.4247136,0.627200855 80.8233045,0.867978632 L183.858214,62.8118504 C184.049941,62.9263462 184.18785,63.1115598 184.241668,63.328765 C184.295486,63.5459701 184.26185,63.7749615 184.145805,63.9669103 L104.595805,196.591688 C104.439395,196.854355 104.160214,196.999158 103.874305,196.999158 L103.874305,196.999158 Z" id="Fill-1" fill="#4F2E1C" mask="url(#mask-2)"></path>
                    </g>
                    <path d="M65.9984465,47.7485114 L147.310554,96.0239957 L166.000998,65.2509777 L84.6888899,16.9754934 L65.9984465,47.7485114 Z M147.598722,98 C147.450425,98 147.302128,97.9616795 147.165628,97.8800402 L64.4093122,48.7481763 C64.2172006,48.6348809 64.079015,48.4499429 64.0250889,48.2350149 C63.9711628,48.0217531 64.0048666,47.7951624 64.1194595,47.6052261 L83.6777759,15.4043534 C83.9170729,15.0111518 84.4344262,14.8811954 84.8338163,15.1194489 L167.591817,64.2513128 C167.782244,64.3646082 167.920429,64.5495462 167.97604,64.762808 C168.028281,64.977736 167.994578,65.2043267 167.879985,65.394263 L148.321668,97.5951357 C148.16326,97.8550486 147.885204,98 147.598722,98 L147.598722,98 Z" id="Fill-4" fill="#4F2E1C"></path>
                    <path d="M45.9712426,83.878325 L57.8780348,91.0290934 L65.0287574,79.1222248 L53.1219652,71.9714565 L45.9712426,83.878325 Z M58.1622025,93 C58.0143024,93 57.8647405,92.9601166 57.7351201,92.8820115 L44.4041658,84.875411 C44.0103194,84.639434 43.8823608,84.1292583 44.1183364,83.7354094 L52.1248856,70.4043697 C52.2378879,70.2149233 52.4223476,70.0786549 52.6350579,70.025477 C52.8477683,69.9706373 53.0754348,70.0055353 53.2648799,70.1185384 L66.5958342,78.1251389 C66.9896806,78.3611159 67.1176392,78.8712915 66.8816636,79.2651405 L58.8751144,92.597842 C58.7621121,92.7856265 58.5776524,92.9218949 58.3649421,92.9767347 C58.2968083,92.991691 58.2303363,93 58.1622025,93 L58.1622025,93 Z" id="Fill-6" fill="#4F2E1C"></path>
                    <path d="M69.9707479,96.8779523 L81.8794451,104.029013 L89.0286519,92.1216579 L77.1216165,84.9705974 L69.9707479,96.8779523 Z M82.1636186,106 C82.0140536,106 81.8661505,105.960115 81.7365275,105.882007 L68.4036391,97.8750791 C68.2141902,97.7620714 68.0779198,97.5776029 68.0247412,97.3632207 C67.9715625,97.1505003 68.0047992,96.9244849 68.1178038,96.7350308 L76.1245165,83.4034465 C76.3604968,83.0095815 76.8706797,82.8832788 77.2645341,83.1176035 L90.5974225,91.1245311 C90.9896151,91.3605178 91.1175763,91.8707143 90.881596,92.2645794 L82.8765451,105.597826 C82.7618786,105.785618 82.579077,105.921892 82.3647005,105.976734 C82.2982271,105.991691 82.230092,106 82.1636186,106 L82.1636186,106 Z" id="Fill-8" fill="#4F2E1C"></path>
                    <path d="M92.9707479,110.878245 L104.879445,118.029076 L112.028652,106.122103 L100.121616,98.9712725 L92.9707479,110.878245 Z M105.163619,120 C105.014054,120 104.86615,119.960116 104.736527,119.88201 L91.4036391,111.87534 C91.2141902,111.762336 91.0779198,111.577873 91.0247412,111.363498 C90.9715625,111.150784 91.0047992,110.924776 91.1178038,110.735328 L99.1245165,97.404172 C99.3604968,97.0103196 99.8706797,96.8823591 100.264534,97.1183381 L113.597422,105.125009 C113.989615,105.360988 114.117576,105.871168 113.881596,106.26502 L105.876545,119.597838 C105.761879,119.785625 105.579077,119.921894 105.3647,119.976734 C105.298227,119.991691 105.230092,120 105.163619,120 L105.163619,120 Z" id="Fill-10" fill="#4F2E1C"></path>
                    <path d="M113.970748,123.878245 L125.879445,131.029076 L133.028652,119.122103 L121.121616,111.971272 L113.970748,123.878245 Z M126.163619,133 C126.014054,133 125.86615,132.960116 125.736527,132.88201 L112.403639,124.87534 C112.21419,124.762336 112.07792,124.577873 112.024741,124.363498 C111.971562,124.150784 112.004799,123.924776 112.117804,123.735328 L120.124517,110.404172 C120.360497,110.01032 120.87068,109.882359 121.264534,110.118338 L134.597422,118.125009 C134.989615,118.360988 135.117576,118.871168 134.881596,119.26502 L126.876545,132.597838 C126.761879,132.785625 126.579077,132.921894 126.3647,132.976734 C126.298227,132.991691 126.230092,133 126.163619,133 L126.163619,133 Z" id="Fill-12" fill="#4F2E1C"></path>
                    <path d="M34.9712426,104.878542 L46.8780348,112.02914 L54.0287574,100.122555 L42.1219652,92.9702948 L34.9712426,104.878542 Z M47.1622025,114 C47.017626,114 46.8697259,113.961779 46.7351201,113.880353 L33.4041658,105.875604 C33.0103194,105.639633 32.8823608,105.129469 33.1183364,104.73563 L41.1248856,91.4032453 C41.2378879,91.2138034 41.4206858,91.0775382 41.6350579,91.0243616 C41.8477683,90.9711849 42.0754348,91.0060821 42.2648799,91.1190825 L55.5958342,99.1254926 C55.9896806,99.361464 56.1176392,99.8716275 55.8816636,100.265467 L47.8751144,113.59619 C47.7189053,113.855426 47.4447084,114 47.1622025,114 L47.1622025,114 Z" id="Fill-14" fill="#4F2E1C"></path>
                    <path d="M55.9707479,117.878542 L67.8794451,125.02914 L75.0286519,113.122555 L63.1216165,105.970295 L55.9707479,117.878542 Z M68.1619568,127 C68.0173773,127 67.8694741,126.961779 67.7365275,126.880353 L54.4036391,118.875604 C54.2141902,118.762604 54.0779198,118.578147 54.0247412,118.363779 C53.9715625,118.151072 54.0047992,117.925072 54.1178038,117.73563 L62.1245165,104.403245 C62.2375212,104.213803 62.4219847,104.077538 62.6363612,104.024362 C62.8490758,103.971185 63.076747,104.006082 63.2645341,104.119083 L76.5974225,112.125493 C76.9896151,112.361464 77.1175763,112.871628 76.881596,113.265467 L68.8765451,126.59619 C68.7203328,126.855426 68.4444685,127 68.1619568,127 L68.1619568,127 Z" id="Fill-16" fill="#4F2E1C"></path>
                    <path d="M78.9707479,131.878672 L90.8794451,139.029168 L98.0286519,127.122753 L86.1216165,119.970595 L78.9707479,131.878672 Z M91.1619568,141 C91.0173773,141 90.8694741,140.960118 90.7365275,140.880354 L77.4036391,132.87572 C77.2141902,132.762722 77.0779198,132.578268 77.0247412,132.363902 C76.9715625,132.151199 77.0047992,131.925201 77.1178038,131.735762 L85.1245165,118.403568 C85.2375212,118.214129 85.4219847,118.077866 85.6363612,118.02469 C85.8507377,117.971514 86.0750852,118.004749 86.2645341,118.119409 L99.5974225,126.125705 C99.9896151,126.361673 100.117576,126.871829 99.881596,127.265663 L91.8765451,140.597857 C91.7203328,140.855428 91.4444685,141 91.1619568,141 L91.1619568,141 Z" id="Fill-18" fill="#4F2E1C"></path>
                    <path d="M101.970748,144.879695 L113.879445,152.02903 L121.028652,140.121781 L109.121616,132.970783 L101.970748,144.879695 Z M114.161957,154 C114.017377,154 113.869474,153.961777 113.736527,153.882008 L100.403639,145.876813 C100.21419,145.762144 100.07792,145.579339 100.024741,145.364959 C99.9715625,145.150579 100.004799,144.924565 100.117804,144.735113 L108.124517,131.403646 C108.237521,131.214194 108.421985,131.077921 108.636361,131.024742 C108.849076,130.971562 109.075085,131.004799 109.264534,131.117806 L122.597422,139.124663 C122.989615,139.360647 123.117576,139.870839 122.881596,140.266363 L114.876545,153.597829 C114.720333,153.855418 114.444468,154 114.161957,154 L114.161957,154 Z" id="Fill-20" fill="#4F2E1C"></path>
                    <path d="M20.9712426,125.878245 L32.8780348,133.029076 L40.0287574,121.122103 L28.1219652,113.971272 L20.9712426,125.878245 Z M33.1622025,135 C33.017626,135 32.8697259,134.961778 32.7351201,134.880349 L19.4041658,126.87534 C19.0103194,126.639361 18.8823608,126.129181 19.1183364,125.735328 L27.1248856,112.404172 C27.3608611,112.01032 27.8693717,111.882359 28.2648799,112.118338 L41.5958342,120.125009 C41.9896806,120.360988 42.1176392,120.871168 41.8816636,121.26502 L33.8751144,134.596177 C33.7189053,134.855421 33.4447084,135 33.1622025,135 L33.1622025,135 Z" id="Fill-22" fill="#4F2E1C"></path>
                    <path d="M43.9707479,139.878538 L55.8794451,147.027478 L63.0286519,135.122549 L51.1216165,127.971948 L43.9707479,139.878538 Z M56.1619568,149 C56.0173773,149 55.8694741,148.960117 55.7365275,148.880352 L42.4036391,140.875601 C42.2141902,140.7626 42.0779198,140.578144 42.0247412,140.363775 C41.9715625,140.151069 42.0047992,139.925068 42.1178038,139.735626 L50.1245165,126.404897 C50.3604968,126.011058 50.8690178,125.881439 51.2645341,126.119073 L64.5974225,134.125486 C64.9896151,134.361458 65.1175763,134.871621 64.881596,135.265461 L56.8765451,148.597851 C56.7203328,148.855426 56.4444685,149 56.1619568,149 L56.1619568,149 Z" id="Fill-24" fill="#4F2E1C"></path>
                    <path d="M65.9707479,152.879425 L77.8794451,160.028972 L85.0286519,148.12137 L73.1216165,140.971823 L65.9707479,152.879425 Z M78.1619568,162 C78.0173773,162 77.8694741,161.961776 77.7365275,161.882004 L64.4036391,153.876572 C64.2141902,153.7619 64.0779198,153.57909 64.0247412,153.364703 C63.9715625,153.150317 64.0047992,152.924297 64.1178038,152.734839 L72.1245165,139.402978 C72.3604968,139.009105 72.8706797,138.882799 73.2645341,139.118791 L86.5974225,147.124223 C86.9896151,147.361876 87.1175763,147.870421 86.881596,148.265956 L78.8765451,161.597817 C78.7203328,161.855414 78.4444685,162 78.1619568,162 L78.1619568,162 Z" id="Fill-26" fill="#4F2E1C"></path>
                    <path d="M88.9707479,166.878981 L100.879445,174.028876 L108.028652,162.120694 L96.1216165,154.970799 L88.9707479,166.878981 Z M101.161957,176 C101.017377,176 100.869474,175.961774 100.736527,175.881998 L87.4036391,167.876177 C87.2141902,167.761499 87.0779198,167.57868 87.0247412,167.364283 C86.9715625,167.149886 87.0047992,166.923855 87.1178038,166.734388 L95.1245165,153.401878 C95.3621587,153.009647 95.8706797,152.883336 96.2645341,153.117677 L109.597422,161.123498 C109.989615,161.361163 110.117576,161.869733 109.881596,162.265288 L101.876545,175.597798 C101.720333,175.855407 101.444468,176 101.161957,176 L101.161957,176 Z" id="Fill-28" fill="#4F2E1C"></path>
                </g>
            </g>
        </g>
    </g>
</svg>