<?xml version="1.0" encoding="UTF-8"?>
<svg width="309px" height="237px" viewBox="0 0 309 237" version="1.1" xmlns="http://www.w3.org/2000/svg" xmlns:xlink="http://www.w3.org/1999/xlink">
    <title>planet copy</title>
    <defs>
        <polygon id="path-1" points="0.269013929 0 231.744963 0 231.744963 140.689372 0.269013929 140.689372"></polygon>
    </defs>
    <g id="gallery:-hindsight" stroke="none" stroke-width="1" fill="none" fill-rule="evenodd">
        <g id="Desktop" transform="translate(-92.000000, -348.000000)">
            <g id="planet-copy" transform="translate(92.000000, 348.000000)">
                <g id="Group-8" transform="translate(-0.000000, 0.000000)">
                    <g id="Group-3" transform="translate(36.785714, 0.000000)">
                        <mask id="mask-2" fill="white">
                            <use xlink:href="#path-1"></use>
                        </mask>
                        <g id="Clip-2"></g>
                        <path d="M4.86538893,140.689372 C3.42338893,140.689372 2.14962226,139.639433 1.9032806,138.158595 C0.821780595,131.652615 0.269013929,124.988842 0.269013929,118.343276 C0.269013929,53.0892755 52.8299139,-0.00242760417 117.431514,-0.00242760417 C172.479864,-0.00242760417 219.453014,37.8075073 231.667956,91.9430802 C232.040472,93.575644 231.025064,95.2021388 229.408822,95.5723484 C227.774556,95.9546961 226.176339,94.9229643 225.809831,93.2904005 C214.225764,41.9344344 169.655947,6.06658281 117.431514,6.06658281 C56.1405056,6.06658281 6.27734726,56.4333003 6.27734726,118.343276 C6.27734726,124.648977 6.80007226,130.978955 7.8335056,137.151139 C8.10988893,138.80191 7.0043556,140.367714 5.3640806,140.646889 C5.2018556,140.677234 5.02761393,140.689372 4.86538893,140.689372" id="Fill-1" fill="#DBA68A" mask="url(#mask-2)"></path>
                    </g>
                    <path d="M152.165204,237 C111.200044,237 73.7435854,215.977435 51.964179,180.772005 C51.0733685,179.32916 51.5036239,177.438111 52.9216487,176.535565 C54.3336135,175.62688 56.2061335,176.068943 57.0969439,177.511788 C77.7673822,210.918266 113.302841,230.860232 152.165204,230.860232 C210.031524,230.860232 257.989849,186.930192 263.716488,128.669934 C263.886166,126.981498 265.38903,125.765824 267.031272,125.919318 C268.697754,126.085092 269.915801,127.589335 269.746123,129.277771 C263.710428,190.68773 213.15845,237 152.165204,237" id="Fill-4" fill="#DBA68A"></path>
                    <path d="M64.4034604,162.9375 C25.3373184,162.9375 3.04904365,154.304241 0.329934291,141.744539 C-1.28228099,134.284912 3.01896501,126.094069 13.1253892,117.393218 C14.3947079,116.293323 16.2896625,116.471518 17.3604622,117.761898 C18.4312619,119.058423 18.2688372,120.993994 16.9995185,122.09389 C11.3206706,126.978901 4.8417308,134.131295 6.20128548,140.417291 C10.0092417,157.984897 75.1535676,163.822332 162.562105,144.073368 C249.964627,124.336693 306.644823,91.0018677 302.842882,73.4342609 C301.122384,65.4830601 287.003469,59.8545439 264.107605,57.9742754 C262.45328,57.8390927 261.220055,56.3582276 261.352402,54.6684438 C261.484748,52.97866 262.892428,51.7620157 264.588864,51.848041 C291.05807,54.017109 306.313958,61.0220309 308.714233,72.1070126 C313.238061,93.0234636 264.011354,127.458185 163.861503,150.070564 C123.83886,159.109372 90.4034397,162.9375 64.4034604,162.9375" id="Fill-6" fill="#DBA68A"></path>
                </g>
            </g>
        </g>
    </g>
</svg>