<?xml version="1.0" encoding="UTF-8"?>
<svg width="325px" height="248px" viewBox="0 0 325 248" version="1.1" xmlns="http://www.w3.org/2000/svg" xmlns:xlink="http://www.w3.org/1999/xlink">
    <title>“</title>
    <g id="gallery:-hindsight" stroke="none" stroke-width="1" fill="none" fill-rule="evenodd" stroke-linejoin="round">
        <g id="Desktop" transform="translate(-690.000000, -843.000000)" fill-rule="nonzero" stroke="#DBA68A" stroke-width="3">
            <path d="M769.5179,1089 C788.897375,1089 804.155927,1082.79178 815.293556,1070.37535 C826.431185,1057.95892 832,1043.09337 832,1025.77871 C832,1008.0084 826.59825,994.054155 815.794749,983.915966 C804.991249,973.777778 793.463803,968.708683 781.212411,968.708683 C777.425617,968.708683 772.413683,969.392157 766.176611,970.759104 C760.162291,972.353875 756.152745,973.151261 754.147971,973.151261 C745.237868,973.151261 740.782816,967.455649 740.782816,956.064426 C740.782816,936.927171 749.804296,920.466853 767.847255,906.683473 C785.890215,892.900093 805.381066,886.008403 826.319809,886.008403 L826.319809,886.008403 L826.319809,845 C789.120127,846.139122 757.433572,859.182073 731.260143,884.128852 C705.086714,909.07563 692,943.53408 692,987.504202 C692,1019.39963 699.128083,1044.28945 713.384248,1062.17367 C727.640414,1080.05789 746.351631,1089 769.5179,1089 Z M950.5179,1089 C969.897375,1089 985.155927,1082.79178 996.293556,1070.37535 C1007.43119,1057.95892 1013,1043.09337 1013,1025.77871 C1013,1008.69188 1007.76531,994.908497 997.295943,984.428571 C986.826571,973.948646 975.13206,968.708683 962.212411,968.708683 C958.425617,968.708683 953.413683,969.392157 947.176611,970.759104 C941.162291,972.353875 937.152745,973.151261 935.147971,973.151261 C926.237868,973.151261 921.782816,967.455649 921.782816,956.064426 C921.782816,936.471522 931.082737,919.897292 949.682578,906.341737 C968.282418,892.786181 987.494829,886.008403 1007.31981,886.008403 L1007.31981,886.008403 L1007.31981,845 C970.120127,846.139122 938.433572,859.182073 912.260143,884.128852 C886.086714,909.07563 873,943.53408 873,987.504202 C873,1019.39963 880.128083,1044.28945 894.384248,1062.17367 C908.640414,1080.05789 927.351631,1089 950.5179,1089 Z" id="“" transform="translate(852.500000, 967.000000) scale(-1, 1) translate(-852.500000, -967.000000) "></path>
        </g>
    </g>
</svg>