<?xml version="1.0" encoding="UTF-8"?>
<svg width="189px" height="189px" viewBox="0 0 189 189" version="1.1" xmlns="http://www.w3.org/2000/svg" xmlns:xlink="http://www.w3.org/1999/xlink">
    <title>Group 10</title>
    <defs>
        <polygon id="path-1" points="0 0.264971138 87.740559 0.264971138 87.740559 87.9994914 0 87.9994914"></polygon>
    </defs>
    <g id="home:-encounters" stroke="none" stroke-width="1" fill="none" fill-rule="evenodd">
        <g id="Desktop" transform="translate(-129.000000, -5226.000000)">
            <g id="card6" transform="translate(129.000000, 5226.000000)">
                <g id="Group-10">
                    <path d="M123.001279,3.71697674 C88.6589213,3.71697674 60.7169047,31.6569767 60.7169047,66.0025581 C60.7169047,78.887907 64.6128757,91.2334884 71.9801748,101.706512 C76.1600938,107.700233 81.3095289,112.849767 87.2903432,117.014419 C97.7657216,124.389535 110.111064,128.283023 123.001279,128.283023 C157.343637,128.283023 185.283095,100.343023 185.283095,66.0025581 C185.283095,31.6569767 157.343637,3.71697674 123.001279,3.71697674 M123.001279,132 C109.341079,132 96.2538904,127.871163 85.1568962,120.061163 C78.8205074,115.648372 73.3615434,110.189302 68.9360478,103.84 C61.1287572,92.7427907 57,79.657907 57,66.0025581 C57,29.607907 86.6073332,0 123.001279,0 C159.395225,0 189,29.607907 189,66.0025581 C189,102.394651 159.395225,132 123.001279,132" id="Fill-1" fill="#4F2E1C"></path>
                    <path d="M122.863036,115 C114.474109,115 106.204842,112.828035 98.9463192,108.718565 C98.0552343,108.213577 97.7369897,107.072201 98.2359973,106.170436 C98.7350048,105.266095 99.8603176,104.94146 100.753948,105.451601 C107.459998,109.249318 115.105506,111.256389 122.863036,111.256389 C147.917796,111.256389 168.300725,90.6291669 168.300725,65.2741221 C168.300725,63.5350046 168.203979,61.7881577 168.013032,60.0799579 C167.898464,59.0519462 168.629153,58.1269933 169.64499,58.0084757 C170.660827,57.9131463 171.577371,58.6319815 171.691939,59.6599932 C171.898162,61.504746 172,63.3958752 172,65.2741221 C172,92.6929196 149.959653,115 122.863036,115" id="Fill-3" fill="#4F2E1C"></path>
                    <path d="M162.155601,41 C161.564207,41 160.982965,40.7090304 160.625083,40.1686584 C152.198349,27.3997714 138.187635,19.7748104 123.146423,19.7748104 C118.108151,19.7748104 113.16379,20.6165437 108.442789,22.274031 C107.478283,22.6117635 106.430018,22.0895771 106.100055,21.1023589 C105.770093,20.1151408 106.282804,19.0421906 107.247309,18.7018601 C112.351575,16.9092799 117.699505,16 123.146423,16 C139.416111,16 154.569002,24.2432713 163.683581,38.0539333 C164.25467,38.9190481 164.031311,40.0907201 163.186099,40.6752572 C162.871366,40.8934844 162.510945,41 162.155601,41" id="Fill-5" fill="#4F2E1C"></path>
                    <g id="Group-9" transform="translate(0.000000, 101.000000)">
                        <mask id="mask-2" fill="white">
                            <use xlink:href="#path-1"></use>
                        </mask>
                        <g id="Clip-8"></g>
                        <path d="M69.9918886,4.95486286 L6.40011714,68.5491771 C4.65571714,70.2910343 3.69706,72.6075771 3.69706,75.0766914 C3.69706,77.5458057 4.65571714,79.8648914 6.40011714,81.6092914 C10.0008029,85.2074343 15.8595457,85.2048914 19.4576886,81.6092914 L83.04946,18.0149771 C78.0883457,14.3024057 73.7070029,9.92360571 69.9918886,4.95486286 M12.9276314,87.9994914 C9.61683143,87.9994914 6.30603143,86.7407771 3.78606,84.2208057 C1.34491714,81.7796629 -0.000254285714,78.5324343 -0.000254285714,75.0766914 C-0.000254285714,71.6234914 1.34491714,68.37372 3.78606,65.93512 L68.9111743,0.807462857 C69.3002314,0.420948571 69.84186,0.220062857 70.3809457,0.273462857 C70.92766,0.321777143 71.4209743,0.60912 71.7362886,1.05666286 C75.8836886,7.01203429 81.00246,12.1282629 86.94766,16.2680343 C87.3952029,16.5808057 87.6850886,17.0792057 87.7334029,17.6208343 C87.7817171,18.1675486 87.5833743,18.7040914 87.1994029,19.0931486 L22.0692029,84.2208057 C19.5492314,86.7407771 16.2384314,87.9994914 12.9276314,87.9994914" id="Fill-7" fill="#4F2E1C" mask="url(#mask-2)"></path>
                    </g>
                </g>
            </g>
        </g>
    </g>
</svg>