<?xml version="1.0" encoding="UTF-8"?>
<svg width="203px" height="189px" viewBox="0 0 203 189" version="1.1" xmlns="http://www.w3.org/2000/svg" xmlns:xlink="http://www.w3.org/1999/xlink">
    <title>crown</title>
    <defs>
        <polygon id="path-1" points="1.60417358 1.88479565 170.974189 1.88479565 170.974189 147 1.60417358 147"></polygon>
        <polygon id="path-3" points="0 2.53199447 51.248928 2.53199447 51.248928 52.6174236 0 52.6174236"></polygon>
    </defs>
    <g id="home:-encounters" stroke="none" stroke-width="1" fill="none" fill-rule="evenodd">
        <g id="Desktop" transform="translate(-774.000000, -1495.000000)">
            <g id="card1" transform="translate(75.000000, 917.000000)">
                <g id="crown" transform="translate(699.000000, 578.000000)">
                    <g id="Group-3" transform="translate(32.000000, 41.000000)">
                        <mask id="mask-2" fill="white">
                            <use xlink:href="#path-1"></use>
                        </mask>
                        <g id="Clip-2"></g>
                        <path d="M62.0317019,144.024209 L168.190438,85.2018391 C167.683891,78.5740565 163.747664,33.8541 148.286683,5.76112174 C147.867249,6.02636087 147.431683,6.2852087 146.979985,6.53766522 C142.07906,9.25396957 136.413475,10.2797739 130.880174,9.48086087 C129.670268,19.4768609 126.301891,35.6308826 117.029174,41.8432304 C113.222004,44.3805783 108.821174,44.9845565 103.936381,43.620013 C89.3304,39.5327739 73.6564755,22.4839696 62.7770038,8.4167087 C59.5086453,11.2640348 55.4820792,13.3859478 51.3006453,14.4692739 C58.0632113,32.1348391 66.7777585,61.7872957 54.4464,72.9688826 C44.2606075,82.1979261 28.4060038,78.2960348 16.4392302,73.0807304 C14.2323623,78.0435783 10.4316453,82.1947304 5.61460755,84.8694913 C15.3551547,98.0931 43.8089094,135.255339 62.0317019,144.024209 L62.0317019,144.024209 Z M170.974834,86.6974043 L62.1478528,147.002557 L61.5283811,146.721339 C42.1408528,137.965252 11.4737774,97.4060348 2.53660755,85.1858609 L1.60417358,83.9107957 L3.03024906,83.2205348 C8.28607925,80.6544261 12.4255698,76.2380348 14.4678906,70.8437739 L14.9712113,69.5079913 L16.2779094,70.1023826 C27.638117,75.2505783 43.1636264,79.5934696 52.6363811,71.0099478 C57.5727962,66.5360348 63.5642491,53.1782087 48.251683,13.999513 L47.6773811,12.5327087 L49.2357396,12.2227304 C53.9688906,11.280013 58.5471736,8.88007826 62.009117,5.50227391 L63.0964189,4.44131739 L64.0159472,5.64927391 C72.7369472,17.0673391 89.6143245,36.8548174 104.665551,41.066687 C108.814721,42.2299043 112.37023,41.7633391 115.532117,39.6446217 C124.685457,33.5153609 127.566645,15.3289043 128.379702,7.79036087 L128.53457,6.33953478 L129.980004,6.63353478 C135.332626,7.72005652 140.904645,6.86362174 145.673287,4.22401304 C146.499249,3.76383913 147.263909,3.2781 147.944683,2.77957826 L149.161042,1.88479565 L149.906343,3.18862174 C167.4774,33.8349261 170.890947,85.3488391 170.923211,85.8665348 L170.974834,86.6974043 Z" id="Fill-1" fill="#4F2E1C" mask="url(#mask-2)"></path>
                    </g>
                    <path d="M63.6305462,5.88628628 C51.4376932,12.7025536 47.0670342,28.1692486 53.8897614,40.3530855 C59.2920244,50.0057166 70.1993896,55.0167331 81.0296254,52.8195951 C85.7537935,51.871999 90.3076345,49.4596443 93.7559559,46.0675716 C101.893095,38.0884915 103.68635,25.5705869 98.1169737,15.6224343 C91.2942465,3.43217308 75.8233993,-0.93319319 63.6305462,5.88628628 M89.6745317,52.4180713 C87.1099833,53.8571324 84.3783214,54.8689723 81.5566754,55.4343178 C69.5887828,57.8627334 57.5341197,52.3249178 51.5598145,41.6572346 C44.0204278,28.1853096 48.8506487,11.0932463 62.3289897,3.5574485 C75.8073307,-3.97834936 92.9043202,0.852784476 100.446921,14.3214973 C106.59798,25.3168239 104.618329,39.1517264 95.6263409,47.9691881 C93.8716498,49.6973463 91.8695024,51.1910147 89.6745317,52.4180713" id="Fill-4" fill="#4F2E1C"></path>
                    <g id="Group-8" transform="translate(0.000000, 76.000000)">
                        <mask id="mask-4" fill="white">
                            <use xlink:href="#path-3"></use>
                        </mask>
                        <g id="Clip-7"></g>
                        <path d="M14.427075,8.01709412 C3.393325,14.0492118 -0.561925,27.7302706 5.613075,38.5175647 C11.515075,48.8315647 24.671075,52.8974471 35.561825,47.7738 C35.977825,47.5705059 36.400325,47.3576824 36.816325,47.1289765 C41.541825,44.5465059 45.185075,40.4075647 47.073325,35.4776824 C49.462075,29.2708588 48.935575,22.4033294 45.630325,16.6316824 C39.458575,5.84756471 25.460825,1.98497647 14.427075,8.01709412 M38.132575,49.4319176 C37.677575,49.6796824 37.212825,49.9179176 36.744825,50.1434471 C24.560575,55.8738 9.857575,51.3314471 3.256825,39.8040353 C-3.642925,27.7493294 0.777075,12.4578 13.110825,5.71415294 C25.441325,-1.02631765 41.086825,3.29368235 47.986575,15.3452118 C51.678575,21.7966235 52.266825,29.4709765 49.598575,36.4020353 C47.486075,41.9163882 43.413825,46.5445059 38.132575,49.4319176" id="Fill-6" fill="#4F2E1C" mask="url(#mask-4)"></path>
                    </g>
                    <path d="M155.357779,5.58319861 C144.377876,11.7251764 140.441929,25.6586361 146.586793,36.6391598 C149.824166,42.4285964 155.409525,46.5135453 161.906911,47.8493203 C167.272348,48.9489899 172.857706,48.0854258 177.637764,45.4106414 C178.465703,44.9481334 179.22896,44.4565164 179.914598,43.9487278 C189.26126,37.1598857 192.049088,24.4392967 186.408749,14.3579146 C180.267119,3.37415659 166.337681,-0.558779135 155.357779,5.58319861 M178.94759,47.7522907 C173.608026,50.7408043 167.362903,51.711101 161.366809,50.4788242 C154.106167,48.9878017 147.864278,44.4209389 144.242042,37.9490603 C137.375965,25.6780421 141.774394,10.104781 154.047952,3.24154938 C166.318276,-3.62491652 181.887423,0.776995908 188.7535,13.0480141 C195.056838,24.3163924 191.939127,38.5312382 181.50256,46.1124893 C180.736069,46.68173 179.875788,47.2347991 178.94759,47.7522907" id="Fill-9" fill="#4F2E1C"></path>
                </g>
            </g>
        </g>
    </g>
</svg>