<?xml version="1.0" encoding="UTF-8"?>
<svg width="90px" height="22px" viewBox="0 0 90 22" version="1.1" xmlns="http://www.w3.org/2000/svg" xmlns:xlink="http://www.w3.org/1999/xlink">
    <title>Path 4</title>
    <g id="home:-encounters" stroke="none" stroke-width="1" fill="none" fill-rule="evenodd">
        <g id="Desktop" transform="translate(-200.000000, -1587.000000)" fill="#DBA68A" fill-rule="nonzero">
            <g id="card1" transform="translate(75.000000, 917.000000)">
                <path id="Path-4" d="M126.461675,670.534599 L126.570498,670.546239 L140.165918,672.72042 C140.711273,672.807633 141.08267,673.320431 140.995457,673.865786 C140.914473,674.372187 140.466531,674.728594 139.966311,674.707098 L139.850091,674.695326 L130.023,673.124 L136.304376,678.112229 C158.747499,693.574337 184.837975,693.989163 213.540669,679.146688 C214.031244,678.893006 214.634583,679.085046 214.888265,679.575622 C215.141947,680.066197 214.949907,680.669536 214.459331,680.923218 C185.423443,695.937992 158.790741,695.669309 135.810546,680.192582 L135.115296,679.718936 L128.779,674.689 L132.540347,683.903536 C132.734106,684.37836 132.536373,684.915556 132.097722,685.156944 L131.992287,685.207235 C131.517463,685.400994 130.980267,685.203261 130.738879,684.76461 L130.688588,684.659175 L125.486705,671.911512 C125.220142,671.258276 125.69279,670.56868 126.355532,670.534455 L126.461675,670.534599 Z"></path>
            </g>
        </g>
    </g>
</svg>