<?xml version="1.0" encoding="UTF-8"?>
<svg width="237px" height="179px" viewBox="0 0 237 179" version="1.1" xmlns="http://www.w3.org/2000/svg" xmlns:xlink="http://www.w3.org/1999/xlink">
    <title>planet</title>
    <defs>
        <polygon id="path-1" points="0.206331071 0 177.746136 0 177.746136 106.259061 0.206331071 106.259061"></polygon>
    </defs>
    <g id="home:-encounters" stroke="none" stroke-width="1" fill="none" fill-rule="evenodd">
        <g id="Desktop" transform="translate(-75.000000, -917.000000)">
            <g id="card1" transform="translate(75.000000, 917.000000)">
                <g id="planet">
                    <g id="Group-8">
                        <g id="Group-3" transform="translate(28.214286, 0.000000)">
                            <mask id="mask-2" fill="white">
                                <use xlink:href="#path-1"></use>
                            </mask>
                            <g id="Clip-2"></g>
                            <path d="M3.73170607,106.259061 C2.62570607,106.259061 1.6487394,105.46607 1.45979774,104.34763 C0.630297738,99.4338319 0.206331071,94.4008553 0.206331071,89.38163 C0.206331071,40.0969634 40.5200311,-0.00183350694 90.0688311,-0.00183350694 C132.290381,-0.00183350694 168.318331,28.5550372 177.687073,69.442242 C177.972789,70.6752754 177.193981,71.9037251 175.954339,72.1833349 C174.700873,72.4721122 173.475056,71.6928718 173.193948,70.4598384 C164.309081,31.671999 130.124464,4.58193385 90.0688311,4.58193385 C43.0592227,4.58193385 4.8146644,42.6226192 4.8146644,89.38163 C4.8146644,94.1441643 5.2155894,98.9250337 6.00822274,103.586725 C6.22020607,104.83351 5.37227274,106.016122 4.11419774,106.226975 C3.98977274,106.249894 3.85613107,106.259061 3.73170607,106.259061" id="Fill-1" fill="#4F2E1C" mask="url(#mask-2)"></path>
                        </g>
                        <path d="M116.709234,179 C85.2893539,179 56.560614,163.122197 39.8560208,136.532443 C39.1727778,135.442699 39.5027795,134.014438 40.5903907,133.332769 C41.6733541,132.646462 43.1095587,132.980341 43.7928016,134.070085 C59.6468271,159.301137 86.9021791,174.362791 116.709234,174.362791 C161.092139,174.362791 197.87571,141.183563 202.267986,97.1810896 C202.398127,95.9058573 203.550809,94.9876899 204.810393,95.1036201 C206.088569,95.2288248 207.022799,96.3649409 206.892658,97.6401733 C202.263338,144.021535 163.490462,179 116.709234,179" id="Fill-4" fill="#4F2E1C"></path>
                        <path d="M49.3968289,123.0625 C19.4334772,123.0625 2.33858688,116.542022 0.253056398,107.056002 C-0.983497073,101.421937 2.31551685,95.2356046 10.0670461,88.6640762 C11.0406012,87.8333534 12.494013,87.9679397 13.3153059,88.9425308 C14.1365989,89.9217628 14.0120208,91.3836494 13.0384656,92.2143723 C8.68284443,95.9038956 3.71356051,101.305915 4.75632576,106.053565 C7.67699123,119.321927 57.6420567,123.730791 124.683556,108.814907 C191.720442,93.9083044 235.193602,68.7313684 232.27755,55.4630072 C230.957945,49.4576699 220.128874,45.2065964 202.567969,43.786478 C201.299118,43.684378 200.353246,42.5659187 200.454755,41.2896685 C200.556263,40.0134183 201.63594,39.0945182 202.93709,39.1594909 C223.238714,40.7977321 234.939832,46.0883693 236.78082,54.4605707 C240.250552,70.2582278 202.494145,96.2658866 125.680182,113.344435 C94.9832031,120.171213 69.3385606,123.0625 49.3968289,123.0625" id="Fill-6" fill="#4F2E1C"></path>
                    </g>
                </g>
            </g>
        </g>
    </g>
</svg>