<?xml version="1.0" encoding="UTF-8"?>
<svg width="325px" height="248px" viewBox="0 0 325 248" version="1.1" xmlns="http://www.w3.org/2000/svg" xmlns:xlink="http://www.w3.org/1999/xlink">
    <title>“</title>
    <g id="home:-encounters" stroke="none" stroke-width="1" fill="none" fill-rule="evenodd" stroke-linejoin="round">
        <g id="Desktop" transform="translate(-178.000000, -342.000000)" fill-rule="nonzero" stroke="#DBA68A" stroke-width="3">
            <path d="M257.5179,588 C276.897375,588 292.155927,581.791783 303.293556,569.37535 C314.431185,556.958917 320,542.093371 320,524.778711 C320,507.008403 314.59825,493.054155 303.794749,482.915966 C292.991249,472.777778 281.463803,467.708683 269.212411,467.708683 C265.425617,467.708683 260.413683,468.392157 254.176611,469.759104 C248.162291,471.353875 244.152745,472.151261 242.147971,472.151261 C233.237868,472.151261 228.782816,466.455649 228.782816,455.064426 C228.782816,435.927171 237.804296,419.466853 255.847255,405.683473 C273.890215,391.900093 293.381066,385.008403 314.319809,385.008403 L314.319809,385.008403 L314.319809,344 C277.120127,345.139122 245.433572,358.182073 219.260143,383.128852 C193.086714,408.07563 180,442.53408 180,486.504202 C180,518.399627 187.128083,543.289449 201.384248,561.173669 C215.640414,579.05789 234.351631,588 257.5179,588 Z M438.5179,588 C457.897375,588 473.155927,581.791783 484.293556,569.37535 C495.431185,556.958917 501,542.093371 501,524.778711 C501,507.691877 495.765314,493.908497 485.295943,483.428571 C474.826571,472.948646 463.13206,467.708683 450.212411,467.708683 C446.425617,467.708683 441.413683,468.392157 435.176611,469.759104 C429.162291,471.353875 425.152745,472.151261 423.147971,472.151261 C414.237868,472.151261 409.782816,466.455649 409.782816,455.064426 C409.782816,435.471522 419.082737,418.897292 437.682578,405.341737 C456.282418,391.786181 475.494829,385.008403 495.319809,385.008403 L495.319809,385.008403 L495.319809,344 C458.120127,345.139122 426.433572,358.182073 400.260143,383.128852 C374.086714,408.07563 361,442.53408 361,486.504202 C361,518.399627 368.128083,543.289449 382.384248,561.173669 C396.640414,579.05789 415.351631,588 438.5179,588 Z" id="“"></path>
        </g>
    </g>
</svg>