<?xml version="1.0" encoding="UTF-8"?>
<svg width="52px" height="39px" viewBox="0 0 52 39" version="1.1" xmlns="http://www.w3.org/2000/svg" xmlns:xlink="http://www.w3.org/1999/xlink">
    <title>logo</title>
    <defs>
        <polygon id="path-1" points="0.8611 0 39.3869167 0 39.3869167 23.1816 0.8611 23.1816"></polygon>
    </defs>
    <g id="home:-encounters" stroke="none" stroke-width="1" fill="none" fill-rule="evenodd">
        <g id="Mobile" transform="translate(-5.000000, -113.000000)">
            <g id="logo" transform="translate(5.000000, 113.000000)">
                <g id="Group-30">
                    <g id="Group-3" transform="translate(5.000000, 0.000000)">
                        <mask id="mask-2" fill="white">
                            <use xlink:href="#path-1"></use>
                        </mask>
                        <g id="Clip-2"></g>
                        <path d="M1.6261,23.1816 C1.3861,23.1816 1.1741,23.0086 1.1331,22.7646 C0.9531,21.6926 0.8611,20.5946 0.8611,19.4996 C0.8611,8.7476 9.6091,-0.0004 20.3611,-0.0004 C29.5231,-0.0004 37.3411,6.2296 39.3741,15.1496 C39.4361,15.4186 39.2671,15.6866 38.9981,15.7476 C38.7261,15.8106 38.4601,15.6406 38.3991,15.3716 C36.4711,6.9096 29.0531,0.9996 20.3611,0.9996 C10.1601,0.9996 1.8611,9.2986 1.8611,19.4996 C1.8611,20.5386 1.9481,21.5816 2.1201,22.5986 C2.1661,22.8706 1.9821,23.1286 1.7091,23.1746 C1.6821,23.1796 1.6531,23.1816 1.6261,23.1816" id="Fill-1" fill="#4F2E1C" mask="url(#mask-2)"></path>
                    </g>
                    <path d="M27.1427,36.8228 C26.9487,36.8228 26.7647,36.7088 26.6837,36.5198 C26.5837,36.2888 24.2697,30.7318 25.0597,18.8728 C25.0787,18.5978 25.3257,18.4008 25.5927,18.4066666 C25.8677,18.4258 26.0767,18.6638 26.0587,18.9398 C25.2857,30.5248 27.5797,36.0718 27.6027,36.1268 C27.7107,36.3808 27.5927,36.6738 27.3387,36.7818 C27.2747,36.8098 27.2077,36.8228 27.1427,36.8228" id="Fill-4" fill="#4A4D41"></path>
                    <path d="M31.7551,12.6685 C31.7551,12.6685 31.2571,13.6655 29.0971,14.4965 C26.9371,15.3265 26.6051,17.6525 26.6051,17.6525 C26.6051,17.6525 32.5861,16.1575 31.7551,12.6685" id="Fill-6" fill="#A70000"></path>
                    <path d="M25.6081,17.8188 C25.6081,17.8188 23.2821,17.6528 22.4511,16.8218 C21.6211,15.9908 18.6301,15.9908 18.6301,15.9908 C18.6301,15.9908 20.4581,19.6468 25.6081,17.8188" id="Fill-8" fill="#A70000"></path>
                    <path d="M27.1032,14.8281 C27.1032,14.8281 25.7742,17.6531 22.1192,15.4931 C20.1252,14.1631 19.9592,12.1701 20.2912,12.0041 C20.6242,11.8381 21.9532,12.3361 22.6172,13.8311 C23.2822,15.3271 25.4422,15.4931 27.1032,14.8281" id="Fill-10" fill="#A70000"></path>
                    <path d="M27.4357,13.6655 C27.4357,13.6655 31.4227,12.8345 31.4227,9.6775 C31.2567,8.3485 29.7617,8.5155 29.4297,7.8505 C29.0967,7.1865 29.2637,5.3585 27.9347,5.0255 C26.6047,4.6935 25.2757,5.5245 25.2757,5.5245 C25.2757,5.5245 26.1067,5.3585 26.6047,6.1885 C27.1027,7.0195 27.2687,8.0165 27.6017,8.5155 C27.9347,9.0135 28.4327,9.1795 28.7647,9.3455 C29.0967,9.5115 30.0937,11.6715 27.4357,13.6655" id="Fill-12" fill="#A70000"></path>
                    <path d="M22.1193,9.6777 C22.1193,9.6777 21.7863,9.1797 21.6203,9.3457 C21.4543,9.5117 21.2883,10.6747 21.6203,11.1737 C21.9523,11.6717 22.6173,11.8377 22.9503,12.1697 C23.2823,12.5027 23.4483,14.6617 25.4423,13.4987 C27.4353,12.3367 28.1003,10.8407 26.9373,10.3427 C26.1063,10.3427 25.9403,11.3397 24.7773,11.1737 C23.6143,11.0077 22.4513,10.3427 22.1193,9.6777" id="Fill-14" fill="#A70000"></path>
                    <path d="M25.7741,7.186 C25.7741,7.186 23.9461,5.69 22.6171,7.352 C21.7871,8.681 22.7841,9.346 23.1161,8.515 C23.4481,7.684 23.9461,6.853 25.7741,7.186" id="Fill-16" fill="#A70000"></path>
                    <path d="M24.7775,9.3457 C24.7775,9.3457 24.6105,10.0107 23.9465,9.8447 C23.2815,9.6777 23.1155,8.3487 24.4445,8.0167 C25.7745,7.6837 26.9375,8.8467 26.7715,9.3457 C26.6045,9.8447 25.7745,9.8447 24.7775,9.3457" id="Fill-18" fill="#A70000"></path>
                    <path d="M20.6237,10.6748 C20.6237,10.6748 19.9587,8.8468 20.7897,7.3518 C21.6207,5.8568 24.1127,5.3588 24.1127,5.3588 C24.1127,5.3588 20.9567,3.8628 19.2947,6.0228 C17.6337,8.1828 20.6237,10.6748 20.6237,10.6748" id="Fill-20" fill="#A70000"></path>
                    <path d="M17.9655,8.1826 C17.9655,8.1826 18.1315,10.0106 18.9625,10.6746 C19.7935,11.3396 18.9625,12.0036 18.9625,12.5026 C18.9625,13.0006 19.4605,14.3296 20.1255,14.8286 C20.1255,14.8286 17.6335,15.6596 16.9685,13.6656 C16.8025,12.5026 17.9655,11.3396 17.9655,11.0076 C17.9655,10.6746 17.3005,9.5116 17.6335,8.8476 L17.9655,8.1826 Z" id="Fill-22" fill="#A70000"></path>
                    <path d="M25.3615,26.229 C25.3615,26.229 22.5905,26.625 20.6115,25.833 C18.6325,25.042 15.8615,21.479 15.8615,21.479 C15.8615,21.479 20.2155,21.479 21.4035,22.271 C22.5905,23.062 24.5695,26.229 25.3615,26.229" id="Fill-24" fill="#4A4D41"></path>
                    <path d="M25.3615,39 C18.6015,39 12.4205,35.576 8.8265,29.841 C8.6795,29.607 8.7505,29.299 8.9845,29.152 C9.2175,29.004 9.5265,29.076 9.6735,29.31 C13.0845,34.751 18.9485,38 25.3615,38 C34.9105,38 42.8245,30.845 43.7695,21.356 C43.7975,21.081 44.0455,20.883 44.3165,20.908 C44.5915,20.935 44.7925,21.18 44.7645,21.455 C43.7685,31.457 35.4265,39 25.3615,39" id="Fill-26" fill="#4F2E1C"></path>
                    <path d="M10.7062,26.8594 C4.2122,26.8594 0.5072,25.4544 0.0552,23.4104 C-0.2128,22.1964 0.5022,20.8634 2.1822,19.4474 C2.3932,19.2684 2.7082,19.2974 2.8862,19.5074 C3.0642,19.7184 3.0372,20.0334 2.8262,20.2124 C1.8822,21.0074 0.8052,22.1714 1.0312,23.1944 C1.6642,26.0534 12.4932,27.0034 27.0232,23.7894 C41.5522,20.5774 50.9742,15.1524 50.3422,12.2934 C50.0562,10.9994 47.7092,10.0834 43.9032,9.7774 C43.6282,9.7554 43.4232,9.5144 43.4452,9.2394 C43.4672,8.9644 43.7012,8.7664 43.9832,8.7804 C48.3832,9.1334 50.9192,10.2734 51.3182,12.0774 C52.0702,15.4814 43.8872,21.0854 27.2392,24.7654 C20.5862,26.2364 15.0282,26.8594 10.7062,26.8594" id="Fill-28" fill="#4F2E1C"></path>
                </g>
            </g>
        </g>
    </g>
</svg>