<?xml version="1.0" encoding="UTF-8"?>
<svg width="225px" height="225px" viewBox="0 0 225 225" version="1.1" xmlns="http://www.w3.org/2000/svg" xmlns:xlink="http://www.w3.org/1999/xlink">
    <title>conceited man hat</title>
    <defs>
        <polygon id="path-1" points="0 0.350981914 171.528898 0.350981914 171.528898 172 0 172"></polygon>
    </defs>
    <g id="home:-encounters" stroke="none" stroke-width="1" fill="none" fill-rule="evenodd">
        <g id="Desktop" transform="translate(-95.000000, -1757.000000)">
            <g id="card2" transform="translate(95.000000, 1757.000000)">
                <g id="conceited-man-hat">
                    <path d="M119.891307,2.94924102 C118.241135,2.94924102 116.975131,3.34515942 116.160232,4.16610786 C115.525774,4.7978306 115.138697,5.72649214 115.007731,6.92006967 C113.866872,17.4759529 131.605485,44.0432419 156.276564,68.7153627 C181.442403,93.8940261 208.240952,111.620108 218.441746,109.943277 C219.466191,109.77443 220.237435,109.413445 220.810775,108.845768 C226.582009,103.064195 211.526743,75.1344808 180.691532,44.2906909 C166.521014,30.1133188 151.838273,18.1629877 139.35285,10.6463605 C130.994311,5.61295672 124.154977,2.94924102 119.891307,2.94924102 L119.891307,2.94924102 Z M217.108803,113 C204.798002,113 179.492466,96.1239783 154.184019,70.8084901 C128.11597,44.7360991 110.796447,18.3347464 112.065362,6.59984155 C112.271997,4.71631799 112.941379,3.19377886 114.067686,2.07006928 C119.277222,-3.14673785 131.523995,2.47763234 140.880787,8.11073603 C153.567024,15.7496322 168.447669,27.854255 182.784077,42.1946523 C209.166445,68.5843602 232.193173,101.640635 222.90041,110.935984 C221.896337,111.943247 220.554664,112.595348 218.921954,112.863175 C218.357346,112.956333 217.749081,113 217.108803,113 L217.108803,113 Z" id="Fill-1" fill="#4F2E1C"></path>
                    <path d="M35.0112608,100.064254 C34.7458989,103.514941 34.4661152,126.812127 69.8486612,158.515128 C104.221678,189.302758 121.092348,191.852512 124.227657,192.048869 C126.079421,189.972682 133.454751,181.774775 142.609736,172.395839 C153.728976,160.998467 163.276235,152.116198 170.983267,145.997366 C186.472325,133.699062 206.437922,118.559356 214.297826,112.622443 C201.347012,110.52893 177.980744,94.3987761 154.611592,71.0034112 C131.51934,47.8852563 115.349571,24.5043294 113.079573,11.4898997 C101.703625,26.2282288 74.7520873,60.9574381 69.2141001,66.5016371 C66.2403164,69.4816441 59.4332072,76.1751093 52.6289824,82.8310358 C44.708507,90.5900268 36.8053379,98.3143666 35.0112608,100.064254 L35.0112608,100.064254 Z M124.59974,195 C121.764406,195 104.515884,193.504221 67.8930595,160.701044 C28.3368326,125.267259 31.9855585,100.191309 32.1615049,99.1431089 C32.2105392,98.8341353 32.3605263,98.5511501 32.5826227,98.3316922 C32.5826227,98.3316922 41.5703143,89.5562647 50.5781965,80.7317479 C57.3737683,74.0815967 64.1722244,67.3996818 67.1431237,64.4283377 C71.7956098,59.7677453 93.9648646,31.4865551 113.166104,6.5723107 C113.567032,6.05254204 114.262164,5.8590726 114.87365,6.10740651 C115.482252,6.35285282 115.854336,6.97657522 115.785111,7.62917364 C114.651554,18.1025121 132.234663,44.4547831 156.685453,68.9272242 C181.626586,93.9021082 208.185849,111.481839 218.29556,109.81858 C218.973387,109.700188 219.619485,110.072689 219.881963,110.693524 C220.147325,111.314358 219.954072,112.036259 219.414695,112.440524 C218.307098,113.275041 192.079537,132.994487 172.806188,148.295898 C165.197224,154.34254 155.73938,163.138181 144.703787,174.446037 C134.201802,185.213911 126.056346,194.408041 125.975584,194.497557 C125.724644,194.780542 125.375635,194.959574 124.997783,194.985562 C124.951633,194.991337 124.816068,195 124.59974,195 L124.59974,195 Z" id="Fill-3" fill="#4F2E1C"></path>
                    <g id="Group-7" transform="translate(0.000000, 53.000000)">
                        <mask id="mask-2" fill="white">
                            <use xlink:href="#path-1"></use>
                        </mask>
                        <g id="Clip-6"></g>
                        <path d="M23.8684776,3.30502386 C19.3447053,3.30502386 15.5251461,4.95398379 13.3806288,6.62612769 C11.4650532,8.11569781 4.10124444,17.0763026 3.06376175,33.7136996 C1.89586922,52.4434501 8.9090204,83.1767015 48.9448401,123.215419 C94.9505322,169.218213 129.488853,171.067135 145.998738,168.079301 C158.335509,165.842048 165.600785,160.208343 166.745494,157.684188 C169.602918,151.40423 170.866445,145.09819 157.318312,131.550057 C153.119115,127.345064 148.708365,124.087716 144.199082,121.844667 C142.634164,123.453055 141.130104,125.017973 139.70429,126.507543 C131.810148,134.795813 126.176443,141.148221 126.118483,141.211977 C125.866357,141.49598 125.5157,141.672758 125.136062,141.701738 C124.457931,141.768392 107.388733,142.747915 67.7615304,107.293827 C28.0213064,71.7296158 31.6843738,46.5663135 31.8611515,45.5114428 C31.9104175,45.2013572 32.0611133,44.9173536 32.284259,44.7000038 L49.5360313,27.845257 C46.649627,22.9969091 43.6965687,18.0906013 41.0912699,13.8769146 C37.5499184,8.15337177 32.7276525,4.59463224 27.1490095,3.59772149 C26.0245869,3.39486175 24.9291443,3.30502386 23.8684776,3.30502386 M135.050108,172.00029 C99.2859348,172.00029 65.0750878,143.512986 46.8640787,125.299079 C6.048698,84.4836978 -1.08327104,52.8665576 0.122295446,33.5311259 C1.20904408,16.0909838 8.94669435,6.33922605 11.5693811,4.29903661 C14.8499129,1.74879982 20.8023974,-0.540617304 27.6706488,0.69682714 C32.1480532,1.49957213 38.5468291,4.17152477 43.6009348,12.3264865 C46.3888073,16.8415648 49.5823993,22.1506942 52.6629694,27.3352097 C53.013627,27.9206049 52.9150951,28.66539 52.4253337,29.1406614 L34.7243719,46.4388016 C34.4577563,49.8990093 34.1766506,73.2800439 69.7263719,105.097146 C104.261795,135.995583 121.212175,138.557412 124.362297,138.751578 C125.854765,137.082332 130.914667,131.460219 137.571365,124.470252 C139.231917,122.740148 140.991,120.905716 142.831228,119.030712 C143.265928,118.581523 143.938263,118.459807 144.503372,118.720627 C149.653111,121.111474 154.666645,124.725275 159.404869,129.466397 C172.863164,142.92759 173.271782,150.450789 169.429039,158.904244 C167.800365,162.491964 159.616423,168.606736 146.523275,170.977297 C142.695022,171.675714 138.860973,171.997392 135.050108,172.00029" id="Fill-5" fill="#4F2E1C" mask="url(#mask-2)"></path>
                    </g>
                    <path d="M35.0416269,99.7250905 C34.7735704,103.185207 34.4909457,126.568522 70.2327808,158.381885 C104.954836,189.279506 121.996818,191.841267 125.163963,192.035428 C126.550864,190.490837 131.014587,185.558577 136.981758,179.287479 C125.318387,174.184242 107.871407,164.766003 87.851667,148.105862 C62.6980628,127.174187 50.5830754,101.25809 45.9649284,89.118704 L35.0416269,99.7250905 Z M125.539825,195 C122.6757,195 105.252029,193.49598 68.2573211,160.578509 C28.3023374,125.018135 31.9852003,99.852599 32.1629334,98.8006541 C32.2124656,98.4876788 32.3639758,98.2065806 32.5883274,97.9863387 L45.5337072,85.4180605 C45.8950007,85.0645142 46.410718,84.9254141 46.9002125,85.038433 C47.3955342,85.1514518 47.7947053,85.507896 47.9636974,85.9802569 C51.8009842,96.7141519 63.5546781,124.041536 89.7513716,145.842586 C110.645209,163.233003 128.663266,172.610672 140.096457,177.415423 C140.545161,177.600889 140.868577,177.997904 140.967641,178.473163 C141.069619,178.945524 140.92685,179.438171 140.591779,179.785921 C132.652063,188.079768 126.987913,194.434906 126.92964,194.495762 C126.676152,194.779758 126.323599,194.956531 125.94191,194.98551 C125.895291,194.991306 125.758349,195 125.539825,195 L125.539825,195 Z" id="Fill-8" fill="#4F2E1C"></path>
                </g>
            </g>
        </g>
    </g>
</svg>