<?xml version="1.0" encoding="UTF-8"?>
<svg width="208px" height="213px" viewBox="0 0 208 213" version="1.1" xmlns="http://www.w3.org/2000/svg" xmlns:xlink="http://www.w3.org/1999/xlink">
    <title>Group 12</title>
    <defs>
        <polygon id="path-1" points="0 0.65302785 156.91804 0.65302785 156.91804 159.095953 0 159.095953"></polygon>
    </defs>
    <g id="home:-encounters" stroke="none" stroke-width="1" fill="none" fill-rule="evenodd">
        <g id="Desktop" transform="translate(-732.000000, -4974.000000)">
            <g id="card5" transform="translate(75.000000, 4362.000000)">
                <g id="Group-12" transform="translate(657.000000, 612.000000)">
                    <path d="M99.6031096,110.59613 L116.259937,127.254117 C116.994139,126.355702 117.791016,125.47818 118.632662,124.633491 C119.477292,123.791787 120.354753,122.997839 121.253105,122.263586 L104.596278,105.602614 L99.6031096,110.59613 Z M116.403196,131 C116.009234,131 115.62721,130.844792 115.346662,130.561239 L96.4364918,111.652738 C95.8545027,111.067723 95.8545027,110.124537 96.4364918,109.539522 L103.539744,102.438761 C104.124717,101.853746 105.067838,101.853746 105.649827,102.438761 L124.559997,121.350247 C124.870392,121.657678 125.028573,122.0845 124.995743,122.517291 C124.959928,122.953067 124.739071,123.350041 124.389877,123.606731 C123.130393,124.532009 121.903739,125.588617 120.742746,126.746706 C119.584736,127.904796 118.531187,129.128551 117.605973,130.388123 C117.349301,130.740325 116.94937,130.961198 116.516609,130.99403 C116.47781,130.997015 116.441995,131 116.403196,131 L116.403196,131 Z" id="Fill-1" fill="#4F2E1C"></path>
                    <path d="M143.90528,117.057646 C137.309188,117.057646 130.694715,119.061321 125.115763,123.154455 C123.822892,124.101146 122.563722,125.185704 121.375016,126.374428 C120.18631,127.563153 119.10177,128.822343 118.155094,130.115234 C108.927306,142.704074 110.312087,160.538007 121.375016,171.598048 C127.101024,177.324147 134.649919,180.620713 142.695129,180.917894 L175.917617,147.694879 C175.617377,139.649541 172.320863,132.097463 166.597919,126.374428 C160.439933,120.216344 152.186393,117.057646 143.90528,117.057646 M143.313991,184 L143.286418,184 C134.202622,183.840686 125.651906,180.207111 119.205935,173.7641 C107.086037,161.644011 105.569518,142.10052 115.682709,128.304574 C116.721294,126.88607 117.91,125.507395 119.205935,124.205312 C120.507996,122.909357 121.88665,121.723696 123.302068,120.685094 C137.094731,110.571744 156.637912,112.082159 168.763937,124.205312 C175.206845,130.648322 178.840363,139.199174 178.999842,148.283114 C179.005802,148.69978 178.843427,149.101128 178.552378,149.395245 L144.395468,183.552696 C144.107483,183.837623 143.718396,184 143.313991,184" id="Fill-3" fill="#4F2E1C"></path>
                    <path d="M197.596022,133.928031 C195.620621,133.928031 193.760175,134.697131 192.365597,136.093017 L131.176576,197.339426 C129.772922,198.744396 129.010593,200.600532 129.025498,202.562645 C129.010593,204.552011 129.772922,206.408146 131.176576,207.810088 C134.059511,210.695728 138.751466,210.695728 141.634402,207.810088 L202.826448,146.560651 C204.227076,145.158709 204.989405,143.302574 204.974501,141.337432 C204.989405,139.351095 204.227076,137.49496 202.826448,136.093017 C201.431869,134.697131 199.574448,133.928031 197.596022,133.928031 M136.403976,213 C133.738849,213 131.070697,211.982608 129.037819,209.950851 C127.059393,207.97057 125.979427,205.345334 126.000297,202.562645 C125.979427,199.80418 127.059393,197.181973 129.037819,195.198663 L190.22684,133.952254 C194.156465,130.015915 201.035579,130.015915 204.965205,133.952254 C206.94363,135.932536 208.020572,138.554743 207.999702,141.337432 C208.020572,144.095897 206.94363,146.721133 204.965205,148.701414 L143.773159,209.950851 C141.740281,211.982608 139.072129,213 136.403976,213" id="Fill-5" fill="#4F2E1C"></path>
                    <g id="Group-9">
                        <mask id="mask-2" fill="white">
                            <use xlink:href="#path-1"></use>
                        </mask>
                        <g id="Clip-8"></g>
                        <path d="M3.38134902,52.4712433 L49.6347804,154.859312 L152.722212,50.7709922 L51.3186824,4.06848038 L3.38134902,52.4712433 Z M49.1545451,159.095953 C49.0652706,159.095953 48.9729176,159.086628 48.8805647,159.071086 C48.3849373,158.980945 47.9631922,158.648355 47.7538588,158.185215 L0.136682353,52.778967 C-0.128062745,52.1883862 -0.0049254902,51.4952308 0.450682353,51.0351994 L49.8964471,1.10625118 C50.3520549,0.6493281 51.0385451,0.52499529 51.6234471,0.792310832 L156.016133,48.8718085 C156.47482,49.0831743 156.804212,49.5090141 156.893486,50.0094537 C156.982761,50.5098932 156.825761,51.0258744 156.468663,51.3833312 L50.2443098,158.63903 C49.9518588,158.93432 49.560898,159.095953 49.1545451,159.095953 L49.1545451,159.095953 Z" id="Fill-7" fill="#4F2E1C" mask="url(#mask-2)"></path>
                    </g>
                    <path d="M136.706433,72.1874504 L147.825733,83.3070348 C148.289421,83.7676638 148.409182,84.4770325 148.120528,85.0666377 C146.968985,87.4127748 147.454169,90.2410369 149.321204,92.1111907 C151.74405,94.5340993 155.693075,94.5340993 158.115922,92.1111907 C160.538769,89.6882821 160.538769,85.7452977 158.115922,83.3223891 C156.242745,81.4491645 153.402272,80.9701103 151.071549,82.1155411 C150.481959,82.4103437 149.769538,82.2905801 149.308921,81.8238094 L138.189621,70.7072959 L136.706433,72.1874504 Z M153.718563,97 C151.341778,97 148.961922,96.0940963 147.150161,94.2822888 C144.622908,91.754971 143.793797,88.045372 144.929986,84.7534099 L133.448334,73.2745349 C133.162751,72.985874 133,72.592804 133,72.1874504 C133,71.779026 133.162751,71.3890268 133.448334,71.1003659 L137.105635,67.4491133 C137.704437,66.8502956 138.677875,66.8502956 139.276677,67.4491133 L150.752188,78.9279883 C154.053278,77.7886992 157.75357,78.6209023 160.286965,81.151291 C163.904345,84.7718351 163.904345,90.6617448 160.286965,94.2822888 C158.475203,96.0940963 156.095348,97 153.718563,97 L153.718563,97 Z" id="Fill-10" fill="#4F2E1C"></path>
                </g>
            </g>
        </g>
    </g>
</svg>